HIERARCHY
ROOT joint_Root
{
	OFFSET 0.0 0.0 0.0
	CHANNELS 6 Xposition Yposition Zposition Zrotation Xrotation Yrotation 
	JOINT Hips
	{
		OFFSET -0.726466 93.3139 -2.00062
		CHANNELS 6 Xposition Yposition Zposition Zrotation Xrotation Yrotation 
		JOINT Spine
		{
			OFFSET 15.7357 0.0 0.0
			CHANNELS 6 Xposition Yposition Zposition Zrotation Xrotation Yrotation 
			JOINT Chest
			{
				OFFSET 8.98455 -0.406207 0.0
				CHANNELS 6 Xposition Yposition Zposition Zrotation Xrotation Yrotation 
				JOINT Neck
				{
					OFFSET 16.3773 0.0 0.0
					CHANNELS 6 Xposition Yposition Zposition Zrotation Xrotation Yrotation 
					JOINT Head
					{
						OFFSET 6.45672 0.0 0.0
						CHANNELS 6 Xposition Yposition Zposition Zrotation Xrotation Yrotation 
						End Site
						{
							OFFSET 0.0 0.0 0.0
						}
					}
				}
				JOINT Shoulder_L
				{
					OFFSET 12.9942 -0.242716 4.98039
					CHANNELS 6 Xposition Yposition Zposition Zrotation Xrotation Yrotation 
					JOINT UpperArm_L
					{
						OFFSET 5.34809 0.0 0.0
						CHANNELS 6 Xposition Yposition Zposition Zrotation Xrotation Yrotation 
						JOINT LowerArm_L
						{
							OFFSET 24.3286 1.87007e-05 0.0
							CHANNELS 6 Xposition Yposition Zposition Zrotation Xrotation Yrotation 
							JOINT Hand_L
							{
								OFFSET 22.2916 0.0 0.0
								CHANNELS 6 Xposition Yposition Zposition Zrotation Xrotation Yrotation 
								End Site
								{
									OFFSET 0.0 0.0 0.0
								}
							}
						}
					}
				}
				JOINT Shoulder_R
				{
					OFFSET 12.9945 -0.242716 -4.98039
					CHANNELS 6 Xposition Yposition Zposition Zrotation Xrotation Yrotation 
					JOINT UpperArm_R
					{
						OFFSET -5.34813 0.0 0.0
						CHANNELS 6 Xposition Yposition Zposition Zrotation Xrotation Yrotation 
						JOINT LowerArm_R
						{
							OFFSET -24.3289 0.000322201 0.0
							CHANNELS 6 Xposition Yposition Zposition Zrotation Xrotation Yrotation 
							JOINT Hand_R
							{
								OFFSET -22.2915 -0.000108084 0.0
								CHANNELS 6 Xposition Yposition Zposition Zrotation Xrotation Yrotation 
								End Site
								{
									OFFSET 0.0 0.0 0.0
								}
							}
						}
					}
				}
			}
		}
		JOINT UpperLeg_L
		{
			OFFSET -2.19248 -6.46944 0.0
			CHANNELS 6 Xposition Yposition Zposition Zrotation Xrotation Yrotation 
			JOINT LowerLeg_L
			{
				OFFSET 39.0811 0.0 -1.23785e-05
				CHANNELS 6 Xposition Yposition Zposition Zrotation Xrotation Yrotation 
				JOINT Foot_L
				{
					OFFSET 40.9854 0.0 -1.26872e-05
					CHANNELS 6 Xposition Yposition Zposition Zrotation Xrotation Yrotation 
					JOINT Toes_L
					{
						OFFSET 11.7543 0.0 0.0
						CHANNELS 6 Xposition Yposition Zposition Zrotation Xrotation Yrotation 
						End Site
						{
							OFFSET 0.0 0.0 0.0
						}
					}
				}
			}
		}
		JOINT UpperLeg_R
		{
			OFFSET -2.19251 6.46944 0.0
			CHANNELS 6 Xposition Yposition Zposition Zrotation Xrotation Yrotation 
			JOINT LowerLeg_R
			{
				OFFSET -39.0811 -0.00228153 -0.0401928
				CHANNELS 6 Xposition Yposition Zposition Zrotation Xrotation Yrotation 
				JOINT Foot_R
				{
					OFFSET -40.9854 0.0 0.0
					CHANNELS 6 Xposition Yposition Zposition Zrotation Xrotation Yrotation 
					JOINT Toes_R
					{
						OFFSET -11.7543 0.0 0.0
						CHANNELS 6 Xposition Yposition Zposition Zrotation Xrotation Yrotation 
						End Site
						{
							OFFSET 0.0 0.0 0.0
						}
					}
				}
			}
		}
	}
}
MOTION
Frames:	8
Frame Time:	0.0333333
0.000000 0.000000 0.000000 0.000000 0.000000 -0.000000 -0.722167 91.752100 0.273851 88.168500 -1.605540 7.496080 15.735700 0.000005 -0.000001 83.811300 83.108800 -83.262600 8.984550 -0.406207 -0.000000 5.944950 -1.490580 1.173660 16.377300 -0.000001 -0.000001 4.616340 -1.521570 0.919500 6.456720 -0.000001 -0.000000 2.258220 0.622893 -1.633730 12.994200 -0.242716 4.980390 -90.256400 0.841208 -73.045800 5.348090 -0.000007 -0.000001 -59.607500 48.347800 -18.205300 24.328600 0.000019 0.000005 0.715552 1.191230 -30.998900 22.291600 -0.000001 0.000005 5.693900 5.644920 -14.547500 12.994500 -0.242716 -4.980390 88.038300 6.036110 -71.958600 -5.348130 -0.000001 -0.000004 -61.670600 39.315100 -18.231500 -24.328900 0.000322 -0.000009 -3.791180 -7.427150 -27.134400 -22.291500 -0.000108 -0.000004 4.873050 5.574310 -9.912990 -2.192480 -6.469440 -0.000000 -168.404000 -18.998500 -0.526275 39.081100 -0.000007 -0.000012 -0.200759 0.434506 24.799100 40.985400 -0.000006 -0.000013 -6.129840 -0.998331 -64.257400 11.754300 -0.000000 0.000003 -0.000146 -0.001422 -16.631600 -2.192510 6.469440 -0.000001 172.190000 21.256300 -178.390000 -39.081100 -0.002282 -0.040193 -0.015837 0.045948 22.628400 -40.985400 0.000008 0.000006 -2.187390 3.565200 -64.281300 -11.754300 -0.000006 -0.000006 -0.001897 -0.027420 -17.688100
0.000000 0.000000 0.000000 0.000000 0.000000 -0.000000 -0.710776 91.758400 0.239019 88.171100 -1.669520 7.505220 15.735700 0.000005 -0.000001 83.802500 83.085300 -83.266700 8.984550 -0.406207 -0.000000 5.991360 -1.497290 1.148830 16.377300 -0.000001 -0.000001 4.536790 -1.415630 0.940771 6.456720 -0.000001 -0.000000 2.109260 0.682647 -1.726780 12.994200 -0.242716 4.980390 -90.235600 0.762940 -72.839400 5.348090 -0.000007 -0.000001 -56.558200 51.083400 -19.348200 24.328600 0.000019 0.000005 0.604764 0.888769 -34.250100 22.291600 -0.000001 0.000005 5.693900 5.650460 -15.059300 12.994500 -0.242716 -4.980390 88.063200 5.918370 -71.842400 -5.348130 -0.000001 -0.000004 -61.635700 37.389400 -18.308300 -24.328900 0.000322 -0.000009 -3.642010 -7.144450 -27.095700 -22.291500 -0.000108 -0.000004 5.989310 5.567820 -9.581350 -2.192480 -6.469440 -0.000000 -168.392000 -19.050300 -0.507630 39.081100 -0.000007 -0.000012 -0.203499 0.441219 24.760400 40.985400 -0.000006 -0.000013 -6.118870 -0.964931 -64.217300 11.754300 -0.000000 0.000003 -0.000153 -0.001475 -16.633600 -2.192510 6.469440 -0.000001 172.205000 21.227200 -178.421000 -39.081100 -0.002282 -0.040193 -0.013218 0.039659 22.632600 -40.985400 0.000008 0.000006 -2.077070 3.580370 -64.264100 -11.754300 -0.000006 -0.000006 -0.001853 -0.026865 -17.665500
0.000000 0.000000 0.000000 0.000000 0.000000 -0.000000 -0.700599 91.756400 0.217908 88.165400 -1.771320 7.541140 15.735700 0.000005 -0.000001 84.013200 83.049300 -83.506800 8.984550 -0.406207 -0.000000 6.067750 -1.453480 1.088790 16.377300 -0.000001 -0.000001 4.424440 -1.341220 0.985211 6.456720 -0.000001 -0.000000 1.976800 0.745306 -1.763440 12.994200 -0.242716 4.980390 -90.179900 0.575806 -72.648500 5.348090 -0.000007 -0.000001 -52.339200 54.178900 -21.006500 24.328600 0.000019 0.000005 0.758460 0.944805 -38.740200 22.291600 -0.000001 0.000005 5.733660 5.658360 -15.873800 12.994500 -0.242716 -4.980390 88.083400 5.775200 -71.604900 -5.348130 -0.000001 -0.000004 -61.102800 35.193500 -18.770700 -24.328900 0.000322 -0.000009 -3.741130 -7.284850 -27.272100 -22.291500 -0.000108 -0.000004 7.277760 5.558110 -9.097080 -2.192480 -6.469440 -0.000000 -168.380000 -19.065100 -0.465611 39.081100 -0.000007 -0.000012 -0.201899 0.437259 24.784800 40.985400 -0.000006 -0.000013 -6.122710 -1.020520 -64.242100 11.754300 -0.000000 0.000003 -0.000136 -0.001337 -16.628500 -2.192510 6.469440 -0.000001 172.204000 21.174500 -178.423000 -39.081100 -0.002282 -0.040193 -0.014068 0.041680 22.640900 -40.985400 0.000008 0.000006 -2.129940 3.626520 -64.234400 -11.754300 -0.000006 -0.000006 -0.001950 -0.028091 -17.715400
0.000000 0.000000 0.000000 0.000000 0.000000 -0.000000 -0.694455 91.763100 0.175246 88.150600 -1.870780 7.536410 15.735700 0.000005 -0.000001 84.082200 83.032400 -83.603900 8.984550 -0.406207 -0.000000 6.102680 -1.439750 1.032280 16.377300 -0.000001 -0.000001 4.348700 -1.188120 0.999514 6.456720 -0.000001 -0.000000 1.805900 0.809642 -1.842310 12.994200 -0.242716 4.980390 -90.089500 0.281653 -72.377900 5.348090 -0.000007 -0.000001 -47.331400 57.166300 -22.871200 24.328600 0.000019 0.000005 1.773710 1.802640 -44.523600 22.291600 -0.000001 0.000005 6.185450 5.667380 -16.982800 12.994500 -0.242716 -4.980390 88.122900 5.575650 -71.360100 -5.348130 -0.000001 -0.000004 -59.868500 32.546000 -19.757700 -24.328900 0.000322 -0.000009 -3.438900 -6.629470 -27.490600 -22.291500 -0.000108 -0.000004 7.683250 5.549530 -8.684600 -2.192480 -6.469440 -0.000000 -168.381000 -19.118000 -0.480860 39.081100 -0.000007 -0.000012 -0.201200 0.435842 24.780000 40.985400 -0.000006 -0.000013 -6.122820 -1.118720 -64.221600 11.754300 -0.000000 0.000003 -0.000157 -0.001506 -16.634800 -2.192510 6.469440 -0.000001 172.237000 21.151300 -178.473000 -39.081100 -0.002282 -0.040193 -0.013529 0.040439 22.615100 -40.985400 0.000008 0.000006 -2.107180 3.677710 -64.173600 -11.754300 -0.000006 -0.000006 -0.001847 -0.026789 -17.662400
0.000000 0.000000 0.000000 0.000000 0.000000 -0.000000 -0.665065 91.764500 0.130605 88.144700 -2.049280 7.574870 15.735700 0.000005 -0.000001 84.163200 83.026300 -83.721100 8.984550 -0.406207 -0.000000 6.116140 -1.420830 0.959129 16.377300 -0.000001 -0.000001 4.428040 -1.057280 1.065290 6.456720 -0.000001 -0.000000 1.528100 0.935486 -2.048130 12.994200 -0.242716 4.980390 -89.950100 -0.154634 -72.112700 5.348090 -0.000007 -0.000001 -41.958200 59.915500 -24.696700 24.328600 0.000019 0.000005 3.307080 2.679260 -51.021400 22.291600 -0.000001 0.000005 7.107970 5.675560 -18.365800 12.994500 -0.242716 -4.980390 88.194900 5.267440 -71.053300 -5.348130 -0.000001 -0.000004 -57.809900 29.739800 -21.401400 -24.328900 0.000322 -0.000009 -2.909270 -5.554660 -27.692300 -22.291500 -0.000108 -0.000004 8.126260 5.537350 -8.127110 -2.192480 -6.469440 -0.000000 -168.372000 -19.162900 -0.436771 39.081100 -0.000007 -0.000012 -0.200863 0.434808 24.795300 40.985400 -0.000006 -0.000013 -6.121830 -1.201760 -64.232600 11.754300 -0.000000 0.000003 -0.000156 -0.001499 -16.634500 -2.192510 6.469440 -0.000001 172.233000 21.075100 -178.495000 -39.081100 -0.002282 -0.040193 -0.014226 0.042107 22.617300 -40.985400 0.000008 0.000006 -2.088320 3.789020 -64.124400 -11.754300 -0.000006 -0.000006 -0.001837 -0.026662 -17.657300
0.000000 0.000000 0.000000 0.000000 0.000000 -0.000000 -0.630385 91.775300 0.084410 88.133300 -2.200430 7.530520 15.735700 0.000005 -0.000001 84.334400 83.056000 -83.963200 8.984550 -0.406207 -0.000000 6.060070 -1.372880 0.814205 16.377300 -0.000001 -0.000001 4.340390 -0.911789 1.109940 6.456720 -0.000001 -0.000000 1.504470 0.919627 -2.025630 12.994200 -0.242716 4.980390 -89.732600 -0.819640 -71.928500 5.348090 -0.000007 -0.000001 -36.073600 62.376300 -26.734900 24.328600 0.000019 0.000005 4.318110 2.687530 -58.147500 22.291600 -0.000001 0.000005 7.670840 5.678920 -19.211100 12.994500 -0.242716 -4.980390 88.282600 4.927840 -70.758400 -5.348130 -0.000001 -0.000004 -55.380100 26.245100 -23.306100 -24.328900 0.000322 -0.000009 -2.581850 -4.901450 -27.813000 -22.291500 -0.000108 -0.000004 8.861790 5.522140 -7.453920 -2.192480 -6.469440 -0.000000 -168.394000 -19.272100 -0.472359 39.081100 -0.000007 -0.000012 -0.200082 0.433532 24.774400 40.985400 -0.000006 -0.000013 -6.104310 -1.287250 -64.212000 11.754300 -0.000000 0.000003 -0.000157 -0.001513 -16.635000 -2.192510 6.469440 -0.000001 172.269000 21.068800 -178.601000 -39.081100 -0.002282 -0.040193 -0.010528 0.033282 22.585800 -40.985400 0.000008 0.000006 -1.982760 3.884300 -64.048100 -11.754300 -0.000006 -0.000006 -0.001970 -0.028343 -17.725600
0.000000 0.000000 0.000000 0.000000 0.000000 -0.000000 -0.605586 91.777300 0.036775 88.130000 -2.296540 7.536160 15.735700 0.000005 -0.000001 84.249400 83.082000 -83.966000 8.984550 -0.406207 -0.000000 6.005200 -1.387000 0.638883 16.377300 -0.000001 -0.000001 4.416990 -0.860379 1.183960 6.456720 -0.000001 -0.000000 1.235120 0.997517 -2.065090 12.994200 -0.242716 4.980390 -89.506900 -1.495300 -71.745400 5.348090 -0.000007 -0.000001 -30.458800 64.385500 -28.230800 24.328600 0.000019 0.000005 6.491710 2.957440 -65.590900 22.291600 -0.000001 0.000005 8.829980 5.681870 -20.438500 12.994500 -0.242716 -4.980390 88.400400 4.509780 -70.446700 -5.348130 -0.000001 -0.000004 -53.072000 21.497100 -25.439700 -24.328900 0.000322 -0.000009 -2.378630 -4.555450 -27.598800 -22.291500 -0.000108 -0.000004 8.751160 5.507310 -6.829920 -2.192480 -6.469440 -0.000000 -168.404000 -19.332200 -0.484002 39.081100 -0.000007 -0.000012 -0.199511 0.431927 24.792900 40.985400 -0.000006 -0.000013 -6.086330 -1.320410 -64.208100 11.754300 -0.000000 0.000003 -0.000167 -0.001587 -16.637700 -2.192510 6.469440 -0.000001 172.244000 21.079900 -178.607000 -39.081100 -0.002282 -0.040193 -0.012263 0.037533 22.542700 -40.985400 0.000008 0.000006 -2.084690 4.021620 -63.978300 -11.754300 -0.000006 -0.000006 -0.001974 -0.028388 -17.727400
0.000000 0.000000 0.000000 0.000000 0.000000 -0.000000 -0.548146 91.781400 0.018032 88.127600 -2.401610 7.499090 15.735700 0.000005 -0.000001 84.448300 83.128100 -84.253600 8.984550 -0.406207 -0.000000 5.916720 -1.329290 0.457572 16.377300 -0.000001 -0.000001 4.411280 -0.824696 1.209920 6.456720 -0.000001 -0.000000 1.042770 0.974427 -2.087790 12.994200 -0.242716 4.980390 -89.260400 -2.233230 -71.669800 5.348090 -0.000007 -0.000001 -24.782700 66.416900 -29.836000 24.328600 0.000019 0.000005 10.165500 3.172470 -72.837500 22.291600 -0.000001 0.000005 11.478300 5.681940 -21.735000 12.994500 -0.242716 -4.980390 88.552200 3.990920 -70.041200 -5.348130 -0.000001 -0.000004 -50.763300 15.939900 -27.857600 -24.328900 0.000322 -0.000009 -2.250300 -4.370160 -27.268200 -22.291500 -0.000108 -0.000004 8.337190 5.490800 -6.166710 -2.192480 -6.469440 -0.000000 -168.440000 -19.419400 -0.518708 39.081100 -0.000007 -0.000012 -0.199985 0.432663 24.807600 40.985400 -0.000006 -0.000013 -6.055770 -1.360770 -64.223800 11.754300 -0.000000 0.000003 -0.000129 -0.001281 -16.626400 -2.192510 6.469440 -0.000001 172.229000 21.058000 -178.669000 -39.081100 -0.002282 -0.040193 -0.011361 0.035428 22.504200 -40.985400 0.000008 0.000006 -2.067470 4.135520 -63.916000 -11.754300 -0.000006 -0.000006 -0.001990 -0.028595 -17.735900
